HIERARCHY
ROOT Hips
{
	OFFSET 0.00000 0.00000 0.00000
	CHANNELS 6 Xposition Yposition Zposition Zrotation Yrotation Xrotation 
	JOINT LHipJoint
	{
		OFFSET 0 0 0
		CHANNELS 3 Zrotation Yrotation Xrotation
		JOINT LeftUpLeg
		{
			OFFSET 1.43652 -1.81092 0.91346
			CHANNELS 3 Zrotation Yrotation Xrotation
			JOINT LeftLeg
			{
				OFFSET 2.45984 -6.75837 0.00000
				CHANNELS 3 Zrotation Yrotation Xrotation
				JOINT LeftFoot
				{
					OFFSET 2.63718 -7.24559 0.00000
					CHANNELS 3 Zrotation Yrotation Xrotation
					JOINT LeftToeBase
					{
						OFFSET 0.19690 -0.54098 2.12239
						CHANNELS 3 Zrotation Yrotation Xrotation
						End Site
						{
							OFFSET 0.00000 -0.00000 1.10116
						}
					}
				}
			}
		}
	}
	JOINT RHipJoint
	{
		OFFSET 0 0 0
		CHANNELS 3 Zrotation Yrotation Xrotation
		JOINT RightUpLeg
		{
			OFFSET -1.35116 -1.81092 0.91345
			CHANNELS 3 Zrotation Yrotation Xrotation
			JOINT RightLeg
			{
				OFFSET -2.55576 -7.02189 0.00000
				CHANNELS 3 Zrotation Yrotation Xrotation
				JOINT RightFoot
				{
					OFFSET -2.61938 -7.19669 0.00000
					CHANNELS 3 Zrotation Yrotation Xrotation
					JOINT RightToeBase
					{
						OFFSET -0.32509 -0.89318 2.23646
						CHANNELS 3 Zrotation Yrotation Xrotation
						End Site
						{
							OFFSET -0.00000 -0.00000 1.19625
						}
					}
				}
			}
		}
	}
	JOINT LowerBack
	{
		OFFSET 0 0 0
		CHANNELS 3 Zrotation Yrotation Xrotation
		JOINT Spine
		{
			OFFSET 0.05193 2.08077 -0.11958
			CHANNELS 3 Zrotation Yrotation Xrotation
			JOINT Spine1
			{
				OFFSET 0.04960 2.08447 0.01967
				CHANNELS 3 Zrotation Yrotation Xrotation
				JOINT Neck
				{
					OFFSET 0 0 0
					CHANNELS 3 Zrotation Yrotation Xrotation
					JOINT Neck1
					{
						OFFSET -0.10699 1.82066 0.27584
						CHANNELS 3 Zrotation Yrotation Xrotation
						JOINT Head
						{
							OFFSET 0.14949 1.84747 -0.32279
							CHANNELS 3 Zrotation Yrotation Xrotation
							End Site
							{
								OFFSET 0.04969 1.88916 -0.14562
							}
						}
					}
				}
				JOINT LeftShoulder
				{
					OFFSET 0 0 0
					CHANNELS 3 Zrotation Yrotation Xrotation
					JOINT LeftArm
					{
						OFFSET 3.73629 1.27211 -0.12847
						CHANNELS 3 Zrotation Yrotation Xrotation
						JOINT LeftForeArm
						{
							OFFSET 5.10995 -0.00000 0.00000
							CHANNELS 3 Zrotation Yrotation Xrotation
							JOINT LeftHand
							{
								OFFSET 3.21207 -0.00000 0.00000
								CHANNELS 3 Zrotation Yrotation Xrotation
								JOINT LeftFingerBase
								{
									OFFSET 0 0 0
									CHANNELS 3 Zrotation Yrotation Xrotation
									JOINT LeftHandIndex1
									{
										OFFSET 0.63349 -0.00000 0.00000
										CHANNELS 3 Zrotation Yrotation Xrotation
										End Site
										{
											OFFSET 0.51074 -0.00000 0.00000
										}
									}
								}
								JOINT LThumb
								{
									OFFSET 0 0 0
									CHANNELS 3 Zrotation Yrotation Xrotation
									End Site
									{
										OFFSET 0.51853 -0.00000 0.51853
									}
								}
							}
						}
					}
				}
				JOINT RightShoulder
				{
					OFFSET 0 0 0
					CHANNELS 3 Zrotation Yrotation Xrotation
					JOINT RightArm
					{
						OFFSET -3.70251 1.29541 -0.35354
						CHANNELS 3 Zrotation Yrotation Xrotation
						JOINT RightForeArm
						{
							OFFSET -5.25109 -0.00000 0.00000
							CHANNELS 3 Zrotation Yrotation Xrotation
							JOINT RightHand
							{
								OFFSET -3.28364 -0.00000 0.00000
								CHANNELS 3 Zrotation Yrotation Xrotation
								JOINT RightFingerBase
								{
									OFFSET 0 0 0
									CHANNELS 3 Zrotation Yrotation Xrotation
									JOINT RightHandIndex1
									{
										OFFSET -0.59974 -0.00000 0.00000
										CHANNELS 3 Zrotation Yrotation Xrotation
										End Site
										{
											OFFSET -0.48353 -0.00000 0.00000
										}
									}
								}
								JOINT RThumb
								{
									OFFSET 0 0 0
									CHANNELS 3 Zrotation Yrotation Xrotation
									End Site
									{
										OFFSET -0.49091 -0.00000 0.49091
									}
								}
							}
						}
					}
				}
			}
		}
	}
}
MOTION
Frames: 14
Frame Time: .0083333
-1.2503 16.9270 -10.8630 -8.6222 44.0847 -11.1589 0.0000 0.0000 0.0000 -8.1902 -4.1705 -10.0225 7.4195 15.6752 50.4438 -0.0971 -19.3077 -12.7346 0.5613 -4.7989 -13.3358 0.0000 0.0000 0.0000 19.5296 8.1656 -16.5780 -7.3612 -15.6287 50.2275 -0.7182 -3.8347 -17.8527 -0.5293 4.6621 -12.9473 1.7359 -2.2715 8.6997 1.7987 -2.7167 -1.6187 1.2963 -1.3599 -6.5755 -18.1854 -10.9242 -5.1887 15.3741 -13.2948 -7.2197 7.0246 -6.3109 1.0107 -0.0000 0.0000 0.0000 142.9767 -80.4396 -174.1993 46.1748 -51.3312 -23.1524 -0.0000 0.0000 -57.6881 15.4506 13.2000 3.6115 -7.1250 0.0000 -0.0000 -10.8298 43.3913 0.4354 -0.0000 0.0000 0.0000 -7.3791 71.2917 -33.0003 -96.2793 59.8505 -65.4353 0.0000 0.0000 29.5759 -61.8398 24.7226 -38.0002 7.1250 -0.0000 -0.0000 -18.2747 12.3958 -22.8219
-1.2259 17.1171 -10.8262 -8.6948 44.3968 -10.9936 0.0000 0.0000 0.0000 -8.4116 -4.5615 -9.1825 6.8757 15.2263 48.4026 -0.3203 -18.7438 -10.1327 0.5413 -4.7139 -13.0943 0.0000 0.0000 0.0000 19.5739 7.7365 -15.9758 -6.8864 -15.2354 48.4432 -0.5224 -4.0097 -15.7085 -0.4712 4.4026 -12.2122 1.6143 -2.2014 8.3659 1.8113 -2.6400 -1.9094 1.3610 -1.3180 -6.6870 -18.3434 -11.0447 -5.0298 15.4378 -13.4938 -7.0376 7.0500 -6.4149 1.0861 0.0000 0.0000 0.0000 140.5302 -79.6005 -171.6534 44.9998 -50.7684 -22.2386 -0.0000 0.0000 -57.3681 16.4886 14.0155 4.1003 -7.1250 0.0000 -0.0000 -10.0973 44.3340 0.1678 0.0000 0.0000 0.0000 -9.8164 70.6239 -35.3827 -93.1594 59.9622 -62.7358 0.0000 0.0000 30.4079 -63.0970 25.3146 -40.1212 7.1250 -0.0000 -0.0000 -18.7554 14.2018 -23.9123
-1.2027 17.3042 -10.7934 -8.7311 44.6935 -10.7762 0.0000 0.0000 0.0000 -8.6618 -4.9752 -8.4698 6.3842 14.7906 46.5049 -0.4913 -18.0205 -7.4901 0.5143 -4.5968 -12.7619 0.0000 0.0000 0.0000 19.5718 7.4166 -15.4344 -6.4375 -14.8393 46.7134 -0.3424 -4.3056 -13.4872 -0.4021 4.0709 -11.2761 1.4722 -2.1343 8.0409 1.8275 -2.5682 -2.1884 1.4421 -1.2770 -6.7902 -18.5148 -11.1711 -4.9519 15.5121 -13.6868 -6.8437 7.0762 -6.5126 1.1790 -0.0000 -0.0000 0.0000 138.2182 -78.7459 -169.2570 43.8461 -50.1905 -21.3486 -0.0000 0.0000 -57.1194 17.6691 15.0503 4.7285 -7.1250 0.0000 -0.0000 -9.2801 45.5318 -0.1229 -0.0000 -0.0000 0.0000 -12.4828 69.9778 -38.0452 -89.5040 59.9991 -59.5705 0.0000 0.0000 31.1975 -64.2913 25.8382 -42.1526 7.1250 -0.0000 -0.0000 -19.2234 15.9070 -24.9600
-1.1807 17.4864 -10.7635 -8.7212 44.9744 -10.5073 0.0000 0.0000 0.0000 -8.9465 -5.3888 -7.8762 5.9437 14.3736 44.7554 -0.6020 -17.1505 -4.8955 0.4746 -4.4182 -12.2563 0.0000 0.0000 0.0000 19.5270 7.1981 -14.9464 -6.0172 -14.4450 45.0509 -0.1842 -4.7506 -11.2490 -0.3199 3.6357 -10.0540 1.3043 -2.0724 7.7237 1.8437 -2.5050 -2.4533 1.5390 -1.2387 -6.8819 -18.6921 -11.3019 -4.9613 15.5896 -13.8713 -6.6296 7.0993 -6.6026 1.2914 0.0000 0.0000 0.0000 135.9675 -77.8770 -166.9242 42.6966 -49.5888 -20.4694 -0.0000 0.0000 -56.9622 18.9267 16.2384 5.4771 -7.1250 0.0000 -0.0000 -8.4190 46.9170 -0.4010 0.0000 0.0000 0.0000 -15.4228 69.3507 -41.0167 -85.2635 59.9151 -55.8992 0.0000 0.0000 31.9205 -65.3629 26.2946 -44.0067 7.1250 -0.0000 -0.0000 -19.6484 17.4519 -25.9074
-1.1597 17.6611 -10.7364 -8.6678 45.2179 -10.1887 0.0000 0.0000 0.0000 -9.2574 -5.7613 -7.4070 5.5530 13.9808 43.1604 -0.6512 -16.1546 -2.4429 0.4140 -4.1302 -11.4432 0.0000 0.0000 0.0000 19.4529 7.0822 -14.5161 -5.6300 -14.0599 43.4781 -0.0526 -5.3501 -9.0847 -0.2339 3.1126 -8.5925 1.1305 -2.0061 7.4142 1.8485 -2.4361 -2.7114 1.6271 -1.1969 -6.9714 -18.8484 -11.4307 -5.0135 15.6635 -14.0462 -6.4158 7.1163 -6.6865 1.4076 -0.0000 -0.0000 0.0000 133.8243 -76.9899 -164.6660 41.5273 -48.9492 -19.5833 -0.0000 0.0000 -56.9092 20.3253 17.4473 6.3373 -7.1250 0.0000 -0.0000 -7.4162 48.3676 -0.6192 -0.0000 -0.0000 0.0000 -18.6320 68.7254 -44.2938 -80.3889 59.6481 -51.6864 0.0000 0.0000 32.5541 -66.2369 26.6887 -45.5707 7.1250 -0.0000 -0.0000 -19.9896 18.7609 -26.6781
-1.1396 17.8259 -10.7116 -8.5799 45.4208 -9.8306 0.0000 0.0000 0.0000 -9.5851 -6.0655 -7.0541 5.2107 13.6173 41.7254 -0.6416 -15.0388 -0.2650 0.3384 -3.7380 -10.3408 0.0000 0.0000 0.0000 19.3705 7.0693 -14.1310 -5.2809 -13.6933 42.0225 0.0502 -6.1049 -7.1605 -0.1595 2.5729 -7.0919 0.9610 -1.9301 7.1014 1.8375 -2.3540 -2.9611 1.6943 -1.1487 -7.0515 -18.9652 -11.5573 -5.0763 15.7263 -14.2162 -6.2220 7.1242 -6.7680 1.5156 -0.0000 0.0000 0.0000 131.8411 -76.0745 -162.5228 40.3271 -48.2625 -18.6830 -0.0000 0.0000 -56.9339 21.7663 18.6345 7.2708 -7.1250 0.0000 -0.0000 -6.3465 49.8295 -0.7583 -0.0000 0.0000 0.0000 -22.0826 68.0734 -47.8387 -74.9249 59.1236 -46.9830 0.0000 0.0000 33.0821 -66.8285 27.0178 -46.7045 7.1250 -0.0000 -0.0000 -20.2010 19.7341 -27.1844
-1.1205 17.9780 -10.6887 -8.4634 45.5793 -9.4397 0.0000 0.0000 0.0000 -9.9242 -6.2831 -6.8108 4.9165 13.2892 40.4609 -0.5827 -13.8001 1.4788 0.2700 -3.3424 -9.2336 0.0000 0.0000 0.0000 19.2881 7.1160 -13.8061 -4.9765 -13.3573 40.7212 0.1268 -6.9453 -5.6512 -0.1073 2.1120 -5.8153 0.7994 -1.8411 6.7782 1.8096 -2.2542 -3.2028 1.7368 -1.0922 -7.1189 -19.0433 -11.6764 -5.1225 15.7891 -14.3792 -6.0570 7.1287 -6.8470 1.6091 0.0000 -0.0000 0.0000 130.0174 -75.1297 -160.4851 39.0870 -47.5196 -17.7629 -0.0000 0.0000 -57.0028 23.1060 19.7694 8.2118 -7.1250 0.0000 -0.0000 -5.3390 51.2473 -0.8236 0.0000 -0.0000 0.0000 -25.7289 67.3733 -51.5985 -69.0055 58.2672 -41.9240 0.0000 0.0000 33.5248 -67.0987 27.2780 -47.3319 7.1250 -0.0000 -0.0000 -20.2612 20.3162 -27.3858
-1.1026 18.1161 -10.6673 -8.3410 45.6942 -9.0348 0.0000 0.0000 0.0000 -10.2554 -6.3945 -6.6696 4.6682 13.0001 39.3690 -0.4915 -12.4392 2.6849 0.2214 -3.0288 -8.3591 0.0000 0.0000 0.0000 19.2324 7.2069 -13.5393 -4.7213 -13.0629 39.6043 0.1872 -7.8375 -4.7096 -0.0762 1.7806 -4.8997 0.6641 -1.7422 6.4494 1.7669 -2.1385 -3.4390 1.7474 -1.0291 -7.1795 -19.0862 -11.7852 -5.1354 15.8574 -14.5333 -5.9287 7.1334 -6.9231 1.6837 -0.0000 -0.0000 0.0000 128.3503 -74.1680 -158.5468 37.8150 -46.7207 -16.8308 -0.0000 0.0000 -57.0854 24.2891 20.8094 9.1084 -7.1250 0.0000 -0.0000 -4.4405 52.5603 -0.8276 -0.0000 -0.0000 0.0000 -29.5256 66.6087 -55.5047 -62.8100 57.0134 -36.6889 0.0000 0.0000 33.8890 -67.0099 27.4332 -47.3581 7.1250 -0.0000 -0.0000 -20.1610 20.4215 -27.2559
-1.0861 18.2392 -10.6474 -8.2216 45.7720 -8.6276 0.0000 0.0000 0.0000 -10.5747 -6.3874 -6.6241 4.4626 12.7518 38.4464 -0.3862 -10.9566 3.3152 0.1962 -2.8522 -7.8675 0.0000 0.0000 0.0000 19.2090 7.3096 -13.3343 -4.5171 -12.8185 38.6927 0.2402 -8.7237 -4.4020 -0.0604 1.5864 -4.3639 0.5534 -1.6345 6.1107 1.7151 -2.0087 -3.6626 1.7327 -0.9604 -7.2227 -19.1081 -11.8808 -5.1052 15.9462 -14.6749 -5.8516 7.1466 -6.9946 1.7352 0.0000 0.0000 0.0000 126.8177 -73.1895 -156.6968 36.5245 -45.8705 -15.8978 -0.0000 0.0000 -57.1268 25.2244 21.7801 9.9148 -7.1250 0.0000 -0.0000 -3.7595 53.7712 -0.8116 0.0000 0.0000 0.0000 -33.3932 65.7619 -59.4647 -56.6178 55.3392 -31.5426 0.0000 0.0000 34.1817 -66.4919 27.4303 -46.6429 7.1250 -0.0000 -0.0000 -19.8817 19.9246 -26.7463
-1.0712 18.3483 -10.6282 -8.1107 45.8338 -8.2311 0.0000 0.0000 0.0000 -10.8801 -6.2662 -6.6590 4.2937 12.5413 37.6749 -0.2827 -9.3765 3.4377 0.1848 -2.7685 -7.6348 0.0000 0.0000 0.0000 19.2196 7.3995 -13.1825 -4.3607 -12.6255 37.9823 0.2883 -9.5328 -4.6908 -0.0537 1.4953 -4.1129 0.4646 -1.5296 5.7795 1.6565 -1.8802 -3.8760 1.6996 -0.8933 -7.2604 -19.1227 -11.9588 -5.0231 16.0659 -14.7980 -5.8357 7.1752 -7.0587 1.7604 -0.0000 0.0000 0.0000 125.4021 -72.2134 -154.9396 35.2331 -44.9779 -14.9779 -0.0000 0.0000 -57.0763 25.8805 22.6502 10.5828 -7.1250 0.0000 -0.0000 -3.3322 54.8311 -0.8053 -0.0000 0.0000 0.0000 -37.2323 64.8369 -63.3628 -50.6843 53.2678 -26.7216 0.0000 0.0000 34.3966 -65.4711 27.2048 -45.0526 7.1250 -0.0000 -0.0000 -19.4086 18.6991 -25.8114
-1.0579 18.4441 -10.6102 -8.0181 45.8799 -7.8605 0.0000 0.0000 0.0000 -11.1663 -6.0225 -6.7679 4.1541 12.3627 37.0274 -0.1935 -7.7788 3.1799 0.1797 -2.7303 -7.5289 0.0000 0.0000 0.0000 19.2655 7.4550 -13.0773 -4.2443 -12.4786 37.4466 0.3251 -10.1685 -5.4190 -0.0501 1.4450 -3.9741 0.4070 -1.4299 5.4705 1.5958 -1.7554 -4.0740 1.6483 -0.8295 -7.2956 -19.1349 -12.0180 -4.8873 16.2185 -14.8992 -5.8999 7.2217 -7.1134 1.7533 0.0000 0.0000 0.0000 124.0654 -71.2441 -153.2508 33.9648 -44.0586 -14.0886 -0.0000 0.0000 -56.9138 26.2780 23.4400 11.1119 -7.1250 0.0000 -0.0000 -3.1553 55.7576 -0.8335 0.0000 0.0000 0.0000 -40.9617 63.8361 -67.1020 -45.2159 50.8738 -22.4061 0.0000 0.0000 34.4939 -63.8588 26.6645 -42.4391 7.1250 -0.0000 -0.0000 -18.7280 16.5923 -24.3981
-1.0461 18.5278 -10.5931 -7.9408 45.9286 -7.5313 0.0000 0.0000 0.0000 -11.4427 -5.6813 -6.9187 4.0348 12.2065 36.4666 -0.1249 -6.2667 2.6990 0.1712 -2.6655 -7.3487 0.0000 0.0000 0.0000 19.3357 7.4425 -12.9971 -4.1563 -12.3655 37.0375 0.3400 -10.5317 -6.3695 -0.0470 1.3991 -3.8477 0.3841 -1.3367 5.2137 1.5193 -1.6364 -4.2643 1.5638 -0.7706 -7.3541 -19.1249 -12.0622 -4.6732 16.3981 -14.9888 -6.0429 7.2819 -7.1656 1.7104 0.0000 -0.0000 0.0000 122.8882 -70.3014 -151.6920 32.7377 -43.1274 -13.2424 -0.0000 0.0000 -56.6204 26.4582 24.1268 11.4986 -7.1250 0.0000 -0.0000 -3.1857 56.5294 -0.9011 0.0000 -0.0000 0.0000 -44.3923 62.7785 -70.5067 -40.3656 48.2850 -18.7117 0.0000 0.0000 34.4656 -61.6225 25.7572 -38.8151 7.1250 -0.0000 -0.0000 -17.8372 13.5842 -22.4953
-1.0354 18.6004 -10.5771 -7.9012 45.9776 -7.2653 0.0000 0.0000 0.0000 -11.6934 -5.2579 -7.0931 3.9270 12.0626 35.9538 -0.0780 -4.9565 2.1262 0.1532 -2.5222 -6.9511 0.0000 0.0000 0.0000 19.4424 7.3542 -12.9252 -4.0838 -12.2711 36.6979 0.3264 -10.5693 -7.3298 -0.0428 1.3349 -3.6707 0.3950 -1.2568 5.0056 1.4531 -1.5313 -4.4275 1.4740 -0.7201 -7.4121 -19.1048 -12.0988 -4.4321 16.5839 -15.0649 -6.2708 7.3486 -7.2119 1.6364 -0.0000 -0.0000 0.0000 121.7353 -69.3814 -150.1512 31.5682 -42.2002 -12.4498 -0.0000 0.0000 -56.1777 26.5051 24.6876 11.7659 -7.1250 0.0000 -0.0000 -3.3276 57.1374 -0.9902 -0.0000 -0.0000 0.0000 -47.5918 61.6695 -73.6011 -36.1785 45.6355 -15.6499 0.0000 0.0000 34.2752 -58.7107 24.4177 -34.2230 7.1250 -0.0000 -0.0000 -16.7117 9.6666 -20.0795
-1.0255 18.6628 -10.5621 -7.9117 46.0328 -7.0781 0.0000 0.0000 0.0000 -11.9126 -4.7759 -7.2662 3.8225 11.9204 35.4511 -0.0496 -3.9474 1.5516 0.1298 -2.3227 -6.3983 0.0000 0.0000 0.0000 19.5943 7.2119 -12.8304 -4.0155 -12.1811 36.3755 0.2860 -10.2893 -8.1744 -0.0396 1.2837 -3.5299 0.4607 -1.1933 4.8636 1.3893 -1.4431 -4.5688 1.3594 -0.6809 -7.4860 -19.0660 -12.1307 -4.1734 16.7738 -15.1309 -6.5689 7.4188 -7.2540 1.5366 -0.0000 0.0000 0.0000 120.6170 -68.5044 -148.6034 30.4790 -41.3004 -11.7245 -0.0000 0.0000 -55.5810 26.4971 25.1176 11.9481 -7.1250 0.0000 -0.0000 -3.4910 57.5928 -1.0772 -0.0000 0.0000 0.0000 -50.4734 60.5420 -76.3051 -32.6680 43.0733 -13.1948 0.0000 0.0000 33.9367 -55.0975 22.5552 -28.8015 7.1250 -0.0000 -0.0000 -15.3183 4.8764 -17.1677
